<?xml version="1.0" encoding="UTF-8" standalone="yes"?>
<svg xmlns="http://www.w3.org/2000/svg" width="100%" height="100%" viewBox="0 0 85.97399999999999 16.951" fill="#0d141a">
  <path d="M6.05 16.70L2.53 16.70L2.53 0.90L6.05 0.90L6.05 16.70ZM8.58 8.51L0 8.51L0 5.52L8.58 5.52L8.58 8.51ZM13.64 16.70L10.12 16.70L10.12 5.52L13.64 5.52L13.64 16.70ZM13.64 10.56L13.64 10.56L12.17 9.41Q12.60 7.45 13.64 6.37Q14.67 5.29 16.51 5.29L16.51 5.29Q17.32 5.29 17.93 5.53Q18.54 5.77 19.00 6.28L19.00 6.28L16.91 8.92Q16.68 8.67 16.33 8.53Q15.98 8.40 15.55 8.40L15.55 8.40Q14.67 8.40 14.16 8.94Q13.64 9.48 13.64 10.56ZM23.44 16.70L19.92 16.70L19.92 5.52L23.44 5.52L23.44 16.70ZM21.69 3.98L21.69 3.98Q20.86 3.98 20.32 3.42Q19.78 2.85 19.78 2.05L19.78 2.05Q19.78 1.22 20.32 0.67Q20.86 0.12 21.69 0.12L21.69 0.12Q22.52 0.12 23.05 0.67Q23.57 1.22 23.57 2.05L23.57 2.05Q23.57 2.85 23.05 3.42Q22.52 3.98 21.69 3.98ZM30.68 16.93L30.68 16.93Q29.09 16.93 27.86 16.17Q26.63 15.41 25.93 14.10Q25.23 12.79 25.23 11.11L25.23 11.11Q25.23 9.43 25.93 8.12Q26.63 6.81 27.86 6.05Q29.09 5.29 30.68 5.29L30.68 5.29Q31.83 5.29 32.76 5.73Q33.70 6.16 34.30 6.93Q34.91 7.71 34.98 8.69L34.98 8.69L34.98 13.41Q34.91 14.40 34.32 15.19Q33.72 15.99 32.77 16.46Q31.83 16.93 30.68 16.93ZM31.30 13.75L31.30 13.75Q32.06 13.75 32.61 13.42Q33.17 13.09 33.49 12.49Q33.81 11.89 33.81 11.11L33.81 11.11Q33.81 10.33 33.50 9.74Q33.19 9.15 32.63 8.81Q32.06 8.46 31.33 8.46L31.33 8.46Q30.59 8.46 30.03 8.81Q29.46 9.15 29.13 9.75Q28.80 10.35 28.80 11.11L28.80 11.11Q28.80 11.87 29.12 12.47Q29.44 13.06 30.02 13.41Q30.59 13.75 31.30 13.75ZM37.12 0L37.12 16.70L33.67 16.70L33.67 13.69L34.20 10.97L33.60 8.26L33.60 0L37.12 0ZM45.13 16.95L45.13 16.95Q43.31 16.95 41.89 16.20Q40.48 15.46 39.67 14.12Q38.87 12.79 38.87 11.11L38.87 11.11Q38.87 9.43 39.66 8.11Q40.46 6.79 41.81 6.03Q43.17 5.27 44.87 5.27L44.87 5.27Q46.53 5.27 47.79 5.98Q49.06 6.69 49.78 7.96Q50.51 9.22 50.51 10.86L50.51 10.86Q50.51 11.16 50.47 11.49Q50.44 11.82 50.35 12.26L50.35 12.26L40.71 12.28L40.71 9.87L48.85 9.84L47.33 10.86Q47.31 9.89 47.03 9.26Q46.76 8.63 46.22 8.29Q45.68 7.96 44.90 7.96L44.90 7.96Q44.07 7.96 43.46 8.34Q42.85 8.72 42.52 9.41Q42.18 10.10 42.18 11.09L42.18 11.09Q42.18 12.07 42.54 12.78Q42.89 13.48 43.55 13.86Q44.21 14.24 45.10 14.24L45.10 14.24Q45.93 14.24 46.60 13.95Q47.27 13.66 47.77 13.09L47.77 13.09L49.70 15.02Q48.88 15.99 47.70 16.47Q46.53 16.95 45.13 16.95ZM57.61 16.95L57.61 16.95Q55.89 16.95 54.49 16.19Q53.08 15.43 52.28 14.10Q51.47 12.77 51.47 11.11L51.47 11.11Q51.47 9.43 52.29 8.11Q53.11 6.79 54.51 6.03Q55.91 5.27 57.66 5.27L57.66 5.27Q58.97 5.27 60.06 5.72Q61.16 6.16 62.01 7.06L62.01 7.06L59.75 9.32Q59.36 8.88 58.85 8.67Q58.33 8.46 57.66 8.46L57.66 8.46Q56.90 8.46 56.32 8.80Q55.73 9.13 55.40 9.72Q55.06 10.30 55.06 11.09L55.06 11.09Q55.06 11.87 55.40 12.47Q55.73 13.06 56.33 13.41Q56.92 13.75 57.66 13.75L57.66 13.75Q58.35 13.75 58.89 13.51Q59.43 13.27 59.82 12.83L59.82 12.83L62.05 15.09Q61.18 16.01 60.08 16.48Q58.97 16.95 57.61 16.95ZM68.75 16.95L68.75 16.95Q67.02 16.95 65.62 16.19Q64.22 15.43 63.41 14.10Q62.61 12.77 62.61 11.11L62.61 11.11Q62.61 9.43 63.42 8.11Q64.24 6.79 65.64 6.03Q67.04 5.27 68.79 5.27L68.79 5.27Q70.10 5.27 71.20 5.72Q72.29 6.16 73.14 7.06L73.14 7.06L70.89 9.32Q70.49 8.88 69.98 8.67Q69.46 8.46 68.79 8.46L68.79 8.46Q68.03 8.46 67.45 8.80Q66.86 9.13 66.53 9.72Q66.19 10.30 66.19 11.09L66.19 11.09Q66.19 11.87 66.53 12.47Q66.86 13.06 67.46 13.41Q68.06 13.75 68.79 13.75L68.79 13.75Q69.48 13.75 70.02 13.51Q70.56 13.27 70.95 12.83L70.95 12.83L73.19 15.09Q72.31 16.01 71.21 16.48Q70.10 16.95 68.75 16.95ZM79.86 16.95L79.86 16.95Q78.13 16.95 76.74 16.18Q75.35 15.41 74.54 14.08Q73.74 12.74 73.74 11.09L73.74 11.09Q73.74 9.43 74.54 8.12Q75.35 6.81 76.73 6.04Q78.11 5.27 79.86 5.27L79.86 5.27Q81.60 5.27 82.98 6.03Q84.36 6.79 85.17 8.11Q85.97 9.43 85.97 11.09L85.97 11.09Q85.97 12.74 85.17 14.08Q84.36 15.41 82.98 16.18Q81.60 16.95 79.86 16.95ZM79.86 13.75L79.86 13.75Q80.61 13.75 81.19 13.42Q81.77 13.09 82.08 12.48Q82.39 11.87 82.39 11.09L82.39 11.09Q82.39 10.30 82.06 9.72Q81.74 9.13 81.18 8.80Q80.61 8.46 79.86 8.46L79.86 8.46Q79.12 8.46 78.55 8.80Q77.97 9.13 77.65 9.73Q77.33 10.33 77.33 11.11L77.33 11.11Q77.33 11.87 77.65 12.48Q77.97 13.09 78.55 13.42Q79.12 13.75 79.86 13.75Z" preserveAspectRatio="none"/>
</svg>